<svg preserveAspectRatio="none" width="100%" height="100%" overflow="visible" style="display: block;" viewBox="0 0 28 28" fill="none" xmlns="http://www.w3.org/2000/svg">
<g id="icon/bell">
<path id="Vector" d="M17.5 19.8333V21C17.5 21.9283 17.1313 22.8185 16.4749 23.4749C15.8185 24.1313 14.9283 24.5 14 24.5C13.0717 24.5 12.1815 24.1313 11.5251 23.4749C10.8687 22.8185 10.5 21.9283 10.5 21V19.8333M17.5 19.8333H10.5M17.5 19.8333H21.6883C22.1352 19.8333 22.3592 19.8333 22.54 19.7727C22.7101 19.7151 22.8646 19.619 22.9915 19.4919C23.1184 19.3648 23.2142 19.2102 23.2715 19.04C23.3333 18.858 23.3333 18.634 23.3333 18.1837C23.3333 17.9865 23.3333 17.8885 23.317 17.794C23.2882 17.6173 23.2191 17.4497 23.1152 17.304C23.0592 17.2258 22.9892 17.1558 22.8503 17.017L22.3953 16.562C22.3228 16.4894 22.2652 16.4031 22.226 16.3082C22.1867 16.2134 22.1666 16.1117 22.1667 16.009V11.6667C22.1667 10.5942 21.9554 9.53224 21.545 8.54142C21.1346 7.55059 20.533 6.65031 19.7747 5.89196C19.0164 5.13362 18.1161 4.53206 17.1252 4.12165C16.1344 3.71124 15.0725 3.5 14 3.5C12.9275 3.5 11.8656 3.71124 10.8748 4.12165C9.88393 4.53206 8.98364 5.13362 8.22529 5.89196C7.46695 6.65031 6.8654 7.55059 6.45498 8.54142C6.04457 9.53224 5.83333 10.5942 5.83333 11.6667V16.009C5.83341 16.1117 5.81325 16.2134 5.77401 16.3082C5.73478 16.4031 5.67723 16.4894 5.60467 16.562L5.14967 17.017C5.00967 17.157 4.94083 17.2258 4.886 17.3028C4.78103 17.4487 4.71116 17.6167 4.68183 17.794C4.66667 17.8873 4.66667 17.9865 4.66667 18.1837C4.66667 18.634 4.66667 18.858 4.72733 19.04C4.78489 19.2104 4.88107 19.3652 5.00837 19.4923C5.13568 19.6194 5.29064 19.7154 5.46117 19.7727C5.642 19.8333 5.86483 19.8333 6.31167 19.8333H10.5" stroke="#1A1A1A" stroke-width="1.8" stroke-linecap="round" stroke-linejoin="round"/>
</g>
</svg>
