<svg preserveAspectRatio="none" width="100%" height="100%" overflow="visible" style="display: block;" viewBox="0 0 7 7" fill="none" xmlns="http://www.w3.org/2000/svg">
<g id="Plus">
<rect width="7" height="7" rx="3.5" fill="var(--fill-0, #FF4800)"/>
<path id="Vector" d="M5 3.5C5 3.53315 4.98683 3.56495 4.96339 3.58839C4.93995 3.61183 4.90815 3.625 4.875 3.625H3.625V4.875C3.625 4.90815 3.61183 4.93995 3.58839 4.96339C3.56495 4.98683 3.53315 5 3.5 5C3.46685 5 3.43505 4.98683 3.41161 4.96339C3.38817 4.93995 3.375 4.90815 3.375 4.875V3.625H2.125C2.09185 3.625 2.06005 3.61183 2.03661 3.58839C2.01317 3.56495 2 3.53315 2 3.5C2 3.46685 2.01317 3.43505 2.03661 3.41161C2.06005 3.38817 2.09185 3.375 2.125 3.375H3.375V2.125C3.375 2.09185 3.38817 2.06005 3.41161 2.03661C3.43505 2.01317 3.46685 2 3.5 2C3.53315 2 3.56495 2.01317 3.58839 2.03661C3.61183 2.06005 3.625 2.09185 3.625 2.125V3.375H4.875C4.90815 3.375 4.93995 3.38817 4.96339 3.41161C4.98683 3.43505 5 3.46685 5 3.5Z" fill="var(--fill-0, white)"/>
</g>
</svg>
