<svg preserveAspectRatio="none" width="100%" height="100%" overflow="visible" style="display: block;" viewBox="0 0 18 18" fill="none" xmlns="http://www.w3.org/2000/svg">
<g id="ArrowRight">
<path id="Vector" d="M15.5855 9.39797L10.523 14.4605C10.4174 14.566 10.2743 14.6253 10.125 14.6253C9.97573 14.6253 9.83258 14.566 9.72703 14.4605C9.62148 14.3549 9.56219 14.2118 9.56219 14.0625C9.56219 13.9132 9.62148 13.7701 9.72703 13.6645L13.8298 9.5625H2.8125C2.66332 9.5625 2.52024 9.50324 2.41475 9.39775C2.30926 9.29226 2.25 9.14918 2.25 9C2.25 8.85082 2.30926 8.70774 2.41475 8.60225C2.52024 8.49676 2.66332 8.4375 2.8125 8.4375H13.8298L9.72703 4.33547C9.62148 4.22992 9.56219 4.08677 9.56219 3.9375C9.56219 3.78823 9.62148 3.64508 9.72703 3.53953C9.83258 3.43398 9.97573 3.37469 10.125 3.37469C10.2743 3.37469 10.4174 3.43398 10.523 3.53953L15.5855 8.60203C15.6378 8.65427 15.6793 8.71631 15.7076 8.7846C15.7359 8.85288 15.7504 8.92608 15.7504 9C15.7504 9.07392 15.7359 9.14712 15.7076 9.2154C15.6793 9.28369 15.6378 9.34573 15.5855 9.39797Z" fill="var(--fill-0, #1A1A1A)"/>
</g>
</svg>
