<svg preserveAspectRatio="none" overflow="visible" style="display: block;" width="18.6006" height="12.9481" viewBox="0 0 18.6006 12.9481" fill="none" xmlns="http://www.w3.org/2000/svg">
<path id="Wifi" d="M6.69141 9.75861C8.24486 8.41777 10.5198 8.4177 12.0733 9.75861C12.1514 9.83076 12.1971 9.9333 12.1992 10.0408C12.2013 10.1482 12.16 10.2517 12.085 10.327L9.65235 12.8328C9.58104 12.9065 9.48329 12.9481 9.38184 12.9481C9.28054 12.948 9.18353 12.9064 9.11231 12.8328L6.6797 10.327C6.60463 10.2517 6.56332 10.1482 6.56544 10.0408C6.56767 9.9333 6.6132 9.8307 6.69141 9.75861ZM3.40235 6.75959C6.7493 3.58192 11.9323 3.58201 15.2793 6.75959C15.3548 6.83405 15.3983 6.93663 15.3994 7.04377C15.4005 7.15101 15.3592 7.2548 15.2852 7.33088L13.8789 8.78107C13.734 8.92899 13.5002 8.93199 13.3516 8.78791C12.2525 7.77204 10.8225 7.20977 9.33985 7.20978C7.85803 7.21041 6.42849 7.77264 5.33009 8.78791C5.18142 8.93188 4.9476 8.92908 4.80274 8.78107L3.39649 7.33088C3.32232 7.25492 3.28124 7.15102 3.28224 7.04377C3.28332 6.93662 3.32683 6.83403 3.40235 6.75959ZM0.117196 3.76643C5.25084 -1.25548 13.3498 -1.25548 18.4834 3.76643C18.5576 3.84094 18.5999 3.94241 18.6006 4.04865C18.6012 4.15504 18.5598 4.25734 18.4863 4.33283L17.0791 5.784C16.934 5.93274 16.698 5.93442 16.5508 5.78791C14.5949 3.88983 11.9996 2.831 9.30079 2.83088C6.60175 2.83087 4.00598 3.88969 2.04981 5.78791C1.90262 5.9346 1.66644 5.93301 1.52149 5.784L0.11329 4.33283C0.0400867 4.25732 -0.000676273 4.1549 8.48987e-06 4.04865C0.000762923 3.94241 0.0429688 3.8409 0.117196 3.76643Z" fill="white"/>
</svg>
