<svg preserveAspectRatio="none" overflow="visible" style="display: block;" width="60" height="60" viewBox="0 0 60 60" fill="none" xmlns="http://www.w3.org/2000/svg">
<g id="check-circle">
<path id="glass" d="M54.5455 30C54.5455 43.5561 43.5561 54.5455 30 54.5455C16.4439 54.5455 5.45455 43.5561 5.45455 30C5.45455 16.4439 16.4439 5.45455 30 5.45455C43.5561 5.45455 54.5455 16.4439 54.5455 30Z" fill="white"/>
<path id="bg" d="M57.2727 16.3636C57.2727 23.8948 51.1675 30 43.6364 30C36.1052 30 30 23.8948 30 16.3636C30 8.83248 36.1052 2.72727 43.6364 2.72727C51.1675 2.72727 57.2727 8.83248 57.2727 16.3636Z" fill="#FF4F8A"/>
<path id="glass_2" d="M30.0004 5.59126C43.481 5.5915 54.4086 16.5198 54.4086 30.0004C54.4084 43.4809 43.4809 54.4084 30.0004 54.4086C16.5198 54.4086 5.5915 43.481 5.59126 30.0004C5.59126 16.5197 16.5197 5.59126 30.0004 5.59126Z" fill="url(#paint0_linear_0_12)" fill-opacity="0.2" stroke="url(#paint1_linear_0_12)" stroke-width="0.272727"/>
<path id="glass_3" d="M30.0004 5.59126C43.481 5.5915 54.4086 16.5198 54.4086 30.0004C54.4084 43.4809 43.4809 54.4084 30.0004 54.4086C16.5198 54.4086 5.5915 43.481 5.59126 30.0004C5.59126 16.5197 16.5197 5.59126 30.0004 5.59126Z" fill="#FF4F8A" fill-opacity="0.25" stroke="url(#paint2_linear_0_12)" stroke-width="0.272727"/>
<path id="top" opacity="0.8" d="M40.8264 20.3718C41.6252 19.573 42.92 19.573 43.7188 20.3718C44.5176 21.1706 44.5176 22.4654 43.7188 23.2642L29.2834 37.6996C27.4196 39.5632 24.3983 39.5632 22.5345 37.6996L16.2809 31.446C15.4821 30.6472 15.4821 29.3524 16.2809 28.5536C17.0797 27.7548 18.3745 27.7548 19.1733 28.5536L25.4269 34.8072C25.6931 35.0732 26.1248 35.0732 26.391 34.8072L40.8264 20.3718Z" fill="white"/>
</g>
<defs>
<linearGradient id="paint0_linear_0_12" x1="30" y1="3.40909" x2="30" y2="54.5455" gradientUnits="userSpaceOnUse">
<stop stop-color="white" stop-opacity="0.1"/>
<stop offset="1" stop-color="white" stop-opacity="0"/>
</linearGradient>
<linearGradient id="paint1_linear_0_12" x1="30" y1="5.45455" x2="30" y2="54.5455" gradientUnits="userSpaceOnUse">
<stop stop-color="white" stop-opacity="0.15"/>
<stop offset="1" stop-color="white" stop-opacity="0"/>
</linearGradient>
<linearGradient id="paint2_linear_0_12" x1="30" y1="5.45455" x2="30" y2="54.5455" gradientUnits="userSpaceOnUse">
<stop stop-color="white" stop-opacity="0.15"/>
<stop offset="1" stop-color="white" stop-opacity="0"/>
</linearGradient>
</defs>
</svg>
