<svg preserveAspectRatio="none" width="100%" height="100%" overflow="visible" style="display: block;" viewBox="0 0 24 24" fill="none" xmlns="http://www.w3.org/2000/svg">
<g id="icon-user">
<path id="Vector" d="M18.8284 15.1716C19.5786 15.9217 20 16.9391 20 18C20 19.1046 19.1046 20 18 20H6C4.89543 20 4 19.1046 4 18C4 16.9391 4.42143 15.9217 5.17157 15.1716C5.92172 14.4214 6.93913 14 8 14H16C17.0609 14 18.0783 14.4214 18.8284 15.1716Z" stroke="var(--stroke-0, #8A8A8A)" stroke-width="1.8" stroke-linecap="round" stroke-linejoin="round"/>
<path id="Vector_2" d="M12 11C14.2091 11 16 9.20914 16 7C16 4.79086 14.2091 3 12 3C9.79086 3 8 4.79086 8 7C8 9.20914 9.79086 11 12 11Z" stroke="var(--stroke-0, #8A8A8A)" stroke-width="1.8" stroke-linecap="round" stroke-linejoin="round"/>
</g>
</svg>
