<svg preserveAspectRatio="none" width="100%" height="100%" overflow="visible" style="display: block;" viewBox="0 0 24 24" fill="none" xmlns="http://www.w3.org/2000/svg">
<g id="Component 1">
<path id="Vector" d="M16.2852 3.90039H16.2861C17.5652 3.9005 18.7902 4.40425 19.6924 5.29883C20.5943 6.19321 21.0995 7.40448 21.0996 8.66602C21.0996 11.4858 19.1233 14.0035 16.877 15.9277C14.6669 17.8209 12.402 18.9615 12.2354 19.0449C12.1623 19.0805 12.0821 19.0996 12 19.0996C11.9176 19.0996 11.8369 19.0807 11.7637 19.0449C11.5966 18.9613 9.33289 17.8207 7.12305 15.9277C4.87691 14.0036 2.9007 11.4866 2.90039 8.66699C2.9012 7.70111 3.19783 6.75753 3.75293 5.96191C4.30827 5.16611 5.09617 4.55562 6.01172 4.21289C6.92736 3.87014 7.92682 3.81179 8.87695 4.0459C9.82702 4.28 10.6812 4.79523 11.3271 5.52148L12.002 6.2793L12.6738 5.51953C13.124 5.011 13.6789 4.60273 14.3018 4.32324C14.9246 4.04378 15.601 3.90002 16.2852 3.90039Z" stroke="var(--stroke-0, #ABABAB)" stroke-width="1.8"/>
</g>
</svg>
