<svg preserveAspectRatio="none" width="100%" height="100%" overflow="visible" style="display: block;" viewBox="-1 -1 22 19" fill="none" xmlns="http://www.w3.org/2000/svg">
<path d="M14.2857 8.79423e-07C13.4745 -0.000447903 12.6725 0.170874 11.9334 0.502506C11.1943 0.834138 10.5351 1.31844 10 1.92301C9.23254 1.06009 8.21834 0.449288 7.09229 0.17183C5.96623 -0.105628 4.78168 -0.0365924 3.69615 0.369755C2.61063 0.776101 1.67557 1.50051 1.01533 2.44663C0.355083 3.39276 0.000942688 4.51577 0 5.66633C0 12.133 8.97857 16.659 9.36071 16.8502C9.55919 16.9487 9.77807 17 10 17C10.2219 17 10.4408 16.9487 10.6393 16.8502C11.0214 16.659 20 12.133 20 5.66633C20 4.16353 19.398 2.72227 18.3263 1.65963C17.2547 0.596987 15.8012 8.79423e-07 14.2857 8.79423e-07Z" fill="none" stroke="#8A8A8A" stroke-width="1.4" stroke-linejoin="round"/>
</svg>
