<svg preserveAspectRatio="none" width="100%" height="100%" overflow="visible" style="display: block;" viewBox="0 0 11 13" fill="none" xmlns="http://www.w3.org/2000/svg">
<g id="Frame 1707482567">
<path id="Vector" d="M9.77778 0H1.22222C0.898069 0 0.587192 0.109573 0.357981 0.304615C0.128769 0.499657 0 0.76419 0 1.04002V12.4802C5.42646e-05 12.5731 0.0292933 12.6642 0.084683 12.7441C0.140073 12.824 0.219595 12.8899 0.314997 12.9349C0.410399 12.9798 0.518205 13.0023 0.627228 12.9998C0.73625 12.9974 0.842517 12.9701 0.935 12.921L5.5 10.4932L10.0658 12.921C10.1582 12.97 10.2644 12.9971 10.3733 12.9994C10.4822 13.0018 10.5899 12.9793 10.6852 12.9344C10.7805 12.8894 10.8599 12.8236 10.9153 12.7438C10.9706 12.6639 10.9999 12.573 11 12.4802V1.04002C11 0.76419 10.8712 0.499657 10.642 0.304615C10.4128 0.109573 10.1019 0 9.77778 0ZM9.77778 11.5423L5.82312 9.43949C5.726 9.38783 5.61377 9.36045 5.49924 9.36045C5.3847 9.36045 5.27247 9.38783 5.17535 9.43949L1.22222 11.5423V1.04002H9.77778V11.5423Z" fill="#DDDDDD"/>
</g>
</svg>
