<svg preserveAspectRatio="none" width="100%" height="100%" overflow="visible" style="display: block;" viewBox="0 0 24 24" fill="none" xmlns="http://www.w3.org/2000/svg">
<g id="icon/gift">
<path id="Vector" d="M20.4615 8.32095H17.0885C17.126 8.28961 17.1644 8.25921 17.201 8.22596C17.493 7.96965 17.7283 7.65656 17.8923 7.30629C18.0563 6.95601 18.1453 6.57608 18.1538 6.19025C18.1665 5.76817 18.0917 5.348 17.934 4.95552C17.7763 4.56304 17.5391 4.20654 17.2369 3.90791C16.9347 3.60928 16.5739 3.37482 16.1767 3.21892C15.7795 3.06302 15.3542 2.98897 14.9269 3.00133C14.5362 3.00964 14.1515 3.09754 13.7967 3.25952C13.442 3.42151 13.1249 3.65409 12.8654 3.94271C12.5062 4.35393 12.2143 4.81802 12 5.31821C11.7857 4.81802 11.4938 4.35393 11.1346 3.94271C10.8751 3.65409 10.558 3.42151 10.2033 3.25952C9.84854 3.09754 9.46378 3.00964 9.07308 3.00133C8.64584 2.98897 8.22055 3.06302 7.82332 3.21892C7.4261 3.37482 7.06531 3.60928 6.76312 3.90791C6.46094 4.20654 6.22372 4.56304 6.06603 4.95552C5.90835 5.348 5.83352 5.76817 5.84615 6.19025C5.8547 6.57608 5.94374 6.95601 6.1077 7.30629C6.27166 7.65656 6.50701 7.96965 6.79904 8.22596C6.83558 8.25731 6.87404 8.28771 6.91154 8.32095H3.53846C3.13044 8.32095 2.73912 8.48109 2.4506 8.76612C2.16209 9.05116 2 9.43775 2 9.84085V12.8806C2 13.2837 2.16209 13.6703 2.4506 13.9554C2.73912 14.2404 3.13044 14.4005 3.53846 14.4005V20.4801C3.53846 20.8832 3.70055 21.2698 3.98907 21.5548C4.27758 21.8399 4.6689 22 5.07692 22H18.9231C19.3311 22 19.7224 21.8399 20.0109 21.5548C20.2995 21.2698 20.4615 20.8832 20.4615 20.4801V14.4005C20.8696 14.4005 21.2609 14.2404 21.5494 13.9554C21.8379 13.6703 22 13.2837 22 12.8806V9.84085C22 9.43775 21.8379 9.05116 21.5494 8.76612C21.2609 8.48109 20.8696 8.32095 20.4615 8.32095ZM14.0192 4.94964C14.141 4.81676 14.2893 4.7102 14.4548 4.63664C14.6203 4.56307 14.7993 4.5241 14.9808 4.52217H15.0279C15.2405 4.52348 15.4508 4.56672 15.6463 4.64934C15.8419 4.73196 16.0187 4.85231 16.1666 5.00333C16.3144 5.15435 16.4303 5.333 16.5074 5.52882C16.5844 5.72464 16.6211 5.93368 16.6154 6.14371C16.6134 6.32296 16.574 6.49987 16.4995 6.66334C16.4251 6.82682 16.3172 6.97331 16.1827 7.09364C15.2702 7.89158 13.7558 8.17277 12.8173 8.27156C12.9327 7.26558 13.25 5.80363 14.0192 4.94964ZM7.85673 4.98384C8.15475 4.68944 8.55837 4.52319 8.97981 4.52122H9.02692C9.20836 4.52315 9.38744 4.56212 9.55291 4.63569C9.71838 4.70925 9.86667 4.81581 9.98846 4.94869C10.7952 5.84923 11.0798 7.34252 11.1798 8.26586C10.2452 8.17087 8.73365 7.88589 7.82212 7.08889C7.68762 6.96856 7.57975 6.82207 7.50529 6.65859C7.43083 6.49512 7.39138 6.31821 7.38942 6.13896C7.38346 5.92544 7.42147 5.71296 7.50113 5.5144C7.5808 5.31583 7.70047 5.13533 7.85288 4.98384H7.85673ZM3.53846 9.84085H11.2308V12.8806H3.53846V9.84085ZM5.07692 14.4005H11.2308V20.4801H5.07692V14.4005ZM18.9231 20.4801H12.7692V14.4005H18.9231V20.4801ZM20.4615 12.8806H12.7692V9.84085H20.4615V12.8806Z" fill="var(--fill-0, #DDDDDD)"/>
</g>
</svg>
