<svg preserveAspectRatio="none" width="100%" height="100%" overflow="visible" style="display: block;" viewBox="0 0 24 24" fill="none" xmlns="http://www.w3.org/2000/svg">
<g id="icon/contents">
<path id="Vector" d="M19.5 3H17.25V2.25C17.25 2.05109 17.171 1.86032 17.0303 1.71967C16.8897 1.57902 16.6989 1.5 16.5 1.5C16.3011 1.5 16.1103 1.57902 15.9697 1.71967C15.829 1.86032 15.75 2.05109 15.75 2.25V3H8.25V2.25C8.25 2.05109 8.17098 1.86032 8.03033 1.71967C7.88968 1.57902 7.69891 1.5 7.5 1.5C7.30109 1.5 7.11032 1.57902 6.96967 1.71967C6.82902 1.86032 6.75 2.05109 6.75 2.25V3H4.5C4.10218 3 3.72064 3.15804 3.43934 3.43934C3.15804 3.72064 3 4.10218 3 4.5V19.5C3 19.8978 3.15804 20.2794 3.43934 20.5607C3.72064 20.842 4.10218 21 4.5 21H19.5C19.8978 21 20.2794 20.842 20.5607 20.5607C20.842 20.2794 21 19.8978 21 19.5V4.5C21 4.10218 20.842 3.72064 20.5607 3.43934C20.2794 3.15804 19.8978 3 19.5 3ZM19.5 19.5H4.5V4.5H6.75V5.25C6.75 5.44891 6.82902 5.63968 6.96967 5.78033C7.11032 5.92098 7.30109 6 7.5 6C7.69891 6 7.88968 5.92098 8.03033 5.78033C8.17098 5.63968 8.25 5.44891 8.25 5.25V4.5H15.75V5.25C15.75 5.44891 15.829 5.63968 15.9697 5.78033C16.1103 5.92098 16.3011 6 16.5 6C16.6989 6 16.8897 5.92098 17.0303 5.78033C17.171 5.63968 17.25 5.44891 17.25 5.25V4.5H19.5V19.5ZM14.25 8.25C13.8241 8.24976 13.4031 8.34047 13.015 8.51605C12.627 8.69163 12.281 8.94804 12 9.26813C11.5971 8.81126 11.0646 8.48787 10.4734 8.34097C9.88227 8.19408 9.26038 8.23063 8.69048 8.44576C8.12058 8.6609 7.62967 9.04443 7.28305 9.54535C6.93642 10.0463 6.75049 10.6408 6.75 11.25C6.75 14.6738 11.4637 17.07 11.6644 17.1713C11.7686 17.2234 11.8835 17.2505 12 17.2505C12.1165 17.2505 12.2314 17.2234 12.3356 17.1713C12.5363 17.07 17.25 14.6738 17.25 11.25C17.25 10.4544 16.9339 9.69129 16.3713 9.12868C15.8087 8.56607 15.0456 8.25 14.25 8.25ZM12 15.6497C10.7072 14.9194 8.25 13.1419 8.25 11.25C8.25 10.8522 8.40804 10.4706 8.68934 10.1893C8.97064 9.90804 9.35218 9.75 9.75 9.75C10.1478 9.75 10.5294 9.90804 10.8107 10.1893C11.092 10.4706 11.25 10.8522 11.25 11.25C11.25 11.4489 11.329 11.6397 11.4697 11.7803C11.6103 11.921 11.8011 12 12 12C12.1989 12 12.3897 11.921 12.5303 11.7803C12.671 11.6397 12.75 11.4489 12.75 11.25C12.75 10.8522 12.908 10.4706 13.1893 10.1893C13.4706 9.90804 13.8522 9.75 14.25 9.75C14.6478 9.75 15.0294 9.90804 15.3107 10.1893C15.592 10.4706 15.75 10.8522 15.75 11.25C15.75 13.1428 13.2928 14.9203 12 15.6497Z" fill="var(--fill-0, #DDDDDD)"/>
</g>
</svg>
