<svg preserveAspectRatio="none" width="100%" height="100%" overflow="visible" style="display: block;" viewBox="0 0 19.6947 13.1298" fill="none" xmlns="http://www.w3.org/2000/svg">
<g id="Icon / Mobile Signal">
<path d="M10.9415 3.28244C10.9415 2.67816 11.4313 2.1883 12.0356 2.1883H13.1298C13.7341 2.1883 14.2239 2.67816 14.2239 3.28244V12.0356C14.2239 12.6399 13.7341 13.1298 13.1298 13.1298H12.0356C11.4313 13.1298 10.9415 12.6399 10.9415 12.0356V3.28244Z" fill="var(--fill-0, black)"/>
<path d="M16.4122 1.09415C16.4122 0.489866 16.9021 0 17.5064 0H18.6005C19.2048 0 19.6947 0.489867 19.6947 1.09415V12.0356C19.6947 12.6399 19.2048 13.1298 18.6005 13.1298H17.5064C16.9021 13.1298 16.4122 12.6399 16.4122 12.0356V1.09415Z" fill="var(--fill-0, black)"/>
<path d="M5.47074 7.11196C5.47074 6.50768 5.9606 6.01781 6.56489 6.01781H7.65903C8.26331 6.01781 8.75318 6.50768 8.75318 7.11196V12.0356C8.75318 12.6399 8.26331 13.1298 7.65903 13.1298H6.56489C5.9606 13.1298 5.47074 12.6399 5.47074 12.0356V7.11196Z" fill="var(--fill-0, black)"/>
<path d="M0 9.84733C0 9.24305 0.489867 8.75318 1.09415 8.75318H2.1883C2.79258 8.75318 3.28244 9.24305 3.28244 9.84733V12.0356C3.28244 12.6399 2.79258 13.1298 2.1883 13.1298H1.09415C0.489867 13.1298 0 12.6399 0 12.0356V9.84733Z" fill="var(--fill-0, black)"/>
</g>
</svg>
