<svg xmlns="http://www.w3.org/2000/svg" viewBox="0 0 32 32" fill="none">
  <path
    fill="#4d4d4d"
    d="M22.1504 10.5014C22.2831 10.1042 22.1802 9.6665 21.8845 9.37081C21.5888 9.07512 21.1511 8.97217 20.7539 9.1049L4.33989 14.5896C3.92403 14.7286 3.62912 15.1 3.58817 15.5364C3.54721 15.9727 3.76795 16.3916 4.15083 16.6041L9.17142 19.3901C9.60249 19.6293 10.1404 19.5535 10.4896 19.2043L14.0649 15.629C14.4969 15.1971 15.1965 15.1964 15.6277 15.6276C16.0588 16.0587 16.0582 16.7584 15.6263 17.1903L12.051 20.7656C11.7018 21.1148 11.6259 21.6528 11.8652 22.0838L14.6512 27.1045C14.8637 27.4873 15.2825 27.7081 15.7189 27.6671C16.1553 27.6262 16.5267 27.3313 16.6657 26.9154L22.1504 10.5014Z"
  />
</svg>
