<svg width="40" height="40" viewBox="0 0 40 40" fill="none" xmlns="http://www.w3.org/2000/svg">
<path d="M12.0179 9.02257C13.9142 8.96817 15.5569 8.93184 17.1071 8.91239V7.15306L17.1567 7.15306C16.5484 6.53918 16.4155 6.21483 16.764 5.77466C16.0337 5.74597 15.2648 5.70718 14.4286 5.65745L13.5714 4.95638V2.89991L14.4286 2.24559C18.7983 1.89567 21.3084 1.94141 25.8393 2.24559L26.5357 2.89991V4.95638L25.8393 5.65744C24.8977 5.70328 24.0435 5.74094 23.2437 5.76981C23.7589 6.12663 23.7351 6.47487 22.9256 7.15306L22.8929 7.15306V8.91805C24.4031 8.93894 26.0165 8.97401 27.875 9.02257L29 9.68757V37.24L27.875 38L12.0179 38L11 37.24L11 9.68758L12.0179 9.02257Z" fill="#1A1A1A"/>
</svg>
